<svg width="512" height="512" viewBox="0 0 512 512" fill="none" xmlns="http://www.w3.org/2000/svg">
<g clip-path="url(#clip0_409_2)">
<path d="M284.286 256.001L506.143 34.1435C513.954 26.3325 513.954 13.6685 506.143 5.85849C498.332 -1.95151 485.668 -1.95251 477.858 5.85849L256 227.716L34.1425 5.85849C26.3315 -1.95251 13.6675 -1.95251 5.85752 5.85849C-1.95248 13.6695 -1.95348 26.3335 5.85752 34.1435L227.715 256L5.85752 477.858C-1.95348 485.669 -1.95348 498.333 5.85752 506.143C9.76252 510.048 14.8815 512 20.0005 512C25.1195 512 30.2375 510.048 34.1435 506.143L256 284.286L477.857 506.143C481.762 510.048 486.881 512 492 512C497.119 512 502.237 510.048 506.143 506.143C513.954 498.332 513.954 485.668 506.143 477.858L284.286 256.001Z" fill="white"/>
</g>
<defs>
<clipPath id="clip0_409_2">
<rect width="512.001" height="512.001" fill="white" transform="translate(-0.000488281 -0.000488281)"/>
</clipPath>
</defs>
</svg>
